<svg id="Layer_1" data-name="Layer 1" xmlns="http://www.w3.org/2000/svg" viewBox="0 0 500 446.57"><defs><style>.cls-1{fill:#ee3824;}.cls-2{fill:#f4af1b;}.cls-3{fill:#02824d;}.cls-4{fill:#f26e21;}.cls-5{fill:#4bb97a;}.cls-6{fill:#df240e;}.cls-7{fill:#0a824e;}</style></defs><path class="cls-1" d="M240.3,203.11v-1.64a2.91,2.91,0,0,0-.05-.71c-.05-.23,0-.57-.08-.85a4.67,4.67,0,0,1-.09-.82c0-.27-.07-.52-.11-.78s-.06-.4-.1-.59l-.06-.36a3.76,3.76,0,0,0-.14-.73l-.18-.8c-.06-.27-.13-.54-.2-.8-.13-.52-.27-1-.43-1.53a1.31,1.31,0,0,0-.1-.32q-.19-.62-.42-1.23c-.34-.93-.73-1.85-1.16-2.75h0c-.15-.32-.3-.63-.46-.94a33.35,33.35,0,0,0-13.18-13.76l-.56-.32c-.77-.41-1.54-.79-2.34-1.14l-.56-.25A31.31,31.31,0,0,0,217,171.7l-.78-.24c-.53-.15-1.06-.28-1.59-.4l-.81-.18c-.86-.18-1.73-.32-2.62-.43-.47-.06-1-.1-1.43-.14-.86-.07-1.74-.1-2.63-.1A33.17,33.17,0,0,0,174,203.38v.12a33.18,33.18,0,0,0,66.35.2v-.59Zm-33.18,18.54a18.26,18.26,0,0,1-18.26-18.2v-.07a18.27,18.27,0,0,1,36.53,0v.07A18.28,18.28,0,0,1,207.12,221.65Z"/><path class="cls-2" d="M240.3,203.33v.37a7.45,7.45,0,0,1-7.45,7.2,8.08,8.08,0,0,1-.85-.05,7.45,7.45,0,0,1-6.61-7.4v-.07a18.27,18.27,0,0,0-36.53,0v.07a7.46,7.46,0,0,1-14.91.05v-.12a33.17,33.17,0,0,1,33.17-33.17,22.86,22.86,0,0,1,2.63.1,10.66,10.66,0,0,1,1.43.14c.89.11,1.76.25,2.62.43l.81.18c.53.12,1.06.25,1.59.4l.78.24c1,.32,2.05.69,3.05,1.11l.56.25c.8.35,1.57.73,2.34,1.14l.56.32a33.35,33.35,0,0,1,13.18,13.76c.16.31.31.62.46.94h0c.43.9.82,1.82,1.16,2.75q.22.61.42,1.23a1.31,1.31,0,0,0,.1.32c.16.5.3,1,.43,1.53.07.26.14.53.2.8l.18.8a3.76,3.76,0,0,0,.14.73l.06.36a4.28,4.28,0,0,0,.1.59c0,.2.07.52.11.78s.07.54.09.82.06.56.08.85a5,5,0,0,0,.05.71,6.63,6.63,0,0,1,0,1v.64Z"/><path class="cls-3" d="M326.05,203.09h0a33.18,33.18,0,0,0-66.35.21v.11a33.18,33.18,0,0,0,33.17,33.18,23,23,0,0,0,2.63-.1,10.63,10.63,0,0,0,1.43-.15l.4-.05q.57-.07,1.14-.18c.36-.05.72-.12,1.08-.2.81-.16,1.61-.36,2.39-.58h.15l1.19-.37a32.38,32.38,0,0,0,5.41-2.34c.38-.21.76-.42,1.14-.65a33.29,33.29,0,0,0,11.4-11.29l.29-.48c.44-.76.86-1.54,1.24-2.33l.32-.68c.23-.51.45-1,.65-1.53.08-.2.15-.4.23-.59a1.72,1.72,0,0,0,.07-.21c.15-.39.28-.78.41-1.18l.12-.36c.08-.26.15-.52.23-.78v-.2c.13-.45.24-.9.35-1.35.06-.27.12-.54.17-.81s.09-.42.13-.63l.06-.33a5.52,5.52,0,0,1,.11-.71c0-.23.08-.52.11-.78s.06-.49.09-.74l.19-1v-2.9Zm-14.91.29a18.27,18.27,0,1,1-36.53.85c0-.28,0-.57,0-.85v-.06a18.27,18.27,0,0,1,36.53,0Z"/><path class="cls-4" d="M270.77,178.64A33.22,33.22,0,0,0,262.09,191a18.28,18.28,0,0,0-25-1.77c-.15-.32-.3-.63-.46-.94a33.22,33.22,0,0,0-8.77-10.76,33.17,33.17,0,0,1,42.87,1.12Z"/><path class="cls-5" d="M326.05,203.38V206l-.09.93a4.67,4.67,0,0,1-.09.74c0,.25-.06.52-.11.78s-.07.47-.11.71l-.06.33a2.71,2.71,0,0,1-.13.63c0,.2-.11.54-.17.81-.11.45-.22.9-.35,1.35v.2c-.08.26-.15.52-.23.78l-.12.36c-.13.4-.26.79-.41,1.18a1.72,1.72,0,0,1-.07.21c-.08.19-.15.39-.23.59-.2.51-.42,1-.65,1.53l-.32.68c-.38.79-.8,1.57-1.24,2.33l-.29.48A33.29,33.29,0,0,1,310,231.9c-.38.23-.76.44-1.14.65a32.38,32.38,0,0,1-5.41,2.34l-1.19.37h-.15c-.78.22-1.58.42-2.39.58-.36.08-.72.15-1.08.2l-1.14.18-.4.05c-.47.06-.95.11-1.43.15-.87.06-1.74.1-2.63.1a33.14,33.14,0,0,1-33.17-33.11v-.18a7.46,7.46,0,0,1,14.91,0v.06a18.27,18.27,0,0,0,36.53.85c0-.28,0-.57,0-.85v-.06A7.46,7.46,0,0,1,326.2,203v.32Z"/><path class="cls-6" d="M164.54,246h-8.06v-4.35h20.9V246h-8v21h-4.79Z"/><path class="cls-6" d="M192.84,258.15a8.92,8.92,0,0,1-8.52,9.32h-.81c-5.8,0-9.28-4.17-9.28-9.32a9,9,0,0,1,8.66-9.33h.59a9,9,0,0,1,9.36,8.63C192.85,257.68,192.85,257.92,192.84,258.15Zm-14.19,0c0,2.72,1.63,5.26,4.86,5.26s4.86-2.54,4.86-5.26a5,5,0,0,0-4.69-5.29h-.17C180.32,252.85,178.65,255.46,178.65,258.15Z"/><path class="cls-6" d="M200.42,249.19v9.36c0,2.72,1.49,4.78,4.32,4.78a4.71,4.71,0,0,0,4.58-4.82c0-.06,0-.12,0-.18v-9.14h4.39v17.92h-4l-.29-2.43a8,8,0,0,1-6.06,2.68c-4.28,0-7.4-3.23-7.4-8.78v-9.39Z"/><path class="cls-6" d="M221.72,249.19l.32,2.06a5.29,5.29,0,0,1,5.05-2.54,6.74,6.74,0,0,1,4.6,1.71l-2,3.84a4.44,4.44,0,0,0-3.2-1.16c-2.32,0-4.46,1.24-4.46,4.54v9.43h-4.42V249.19Z"/><path class="cls-7" d="M259.14,266.18v3.58a6.3,6.3,0,0,0-6.14,6.31v.3h-4v-.73a9.47,9.47,0,0,1,9.48-9.48h0Z"/><path class="cls-7" d="M255.09,249.26a10.07,10.07,0,0,0,4.22-8.1h-4.4a6.31,6.31,0,0,1-6,6.09h0a10.33,10.33,0,1,0,6.15,2ZM249,263.93a6.32,6.32,0,1,1,6.32-6.32,6.32,6.32,0,0,1-6.32,6.32Z"/><path class="cls-7" d="M267.87,260.34c.29,2.21,2.21,3.81,5.33,3.81a7.35,7.35,0,0,0,4.79-1.67l2.83,2.79a11,11,0,0,1-7.69,2.91c-6.17,0-9.83-3.81-9.83-9.55,0-5.44,3.7-9.36,9.51-9.36,6,0,9.72,3.71,9,11.07Zm9.72-3.66c-.29-2.33-2.1-3.49-4.64-3.49a4.83,4.83,0,0,0-5,3.49Z"/><path class="cls-7" d="M289,260.34c.29,2.21,2.22,3.81,5.34,3.81a7.37,7.37,0,0,0,4.78-1.67l2.83,2.79a11,11,0,0,1-7.69,2.91c-6.16,0-9.83-3.81-9.83-9.55,0-5.44,3.7-9.36,9.51-9.36,6,0,9.72,3.71,9,11.07Zm9.73-3.66c-.29-2.33-2.11-3.49-4.65-3.49a4.8,4.8,0,0,0-5,3.49Z"/><path class="cls-7" d="M310.36,242.35V257l6-7.18h5.29v.25l-7.29,8.17,8.31,9.14v.32h-5.33l-7-8.09v8.09h-4.43V242.35Z"/><path class="cls-7" d="M343.52,249.82,332.6,275.18h-4.87l3.34-7.77-7.15-17.59h5.16l2.72,7.73,1.7,5,1.85-4.93,3.27-7.84Z"/></svg>